<?xml version="1.0" encoding="UTF-8"?>
<svg id="Capa_1" data-name="Capa 1" xmlns="http://www.w3.org/2000/svg" viewBox="0 0 384 512">
  <defs>
    <style>
      .cls-1 {
        fill: #d850bf;
      }

      .cls-1, .cls-2 {
        stroke-width: 0px;
      }

      .cls-2 {
        fill: #fff;
      }
    </style>
  </defs>
  <path class="cls-1" d="m144,56c0-4.4,3.6-8,8-8h80c4.4,0,8,3.6,8,8v72h-96V56Zm176,72h-32V56c0-30.9-25.1-56-56-56h-80c-30.9,0-56,25.1-56,56v72h-32C28.7,128,0,156.7,0,192v224c0,35.3,28.7,64,64,64,0,17.7,14.3,32,32,32s32-14.3,32-32h128c0,17.7,14.3,32,32,32s32-14.3,32-32c35.3,0,64-28.7,64-64v-224c0-35.3-28.7-64-64-64Z"/>
  <g>
    <path class="cls-2" d="m147.58,355.37l145.98-150.08c1.88-1.93,5.05.15,4.02,2.64l-97.34,235.49c-.78,1.88-3.38,2.05-4.39.28l-48.64-85.4c-.54-.95-.39-2.14.37-2.92Z"/>
    <path class="cls-2" d="m46.73,263.63l247.87-59.08c2.62-.63,4.18,2.83,1.98,4.38l-171.18,120.55c-.89.63-2.09.59-2.94-.09l-76.69-61.47c-1.59-1.27-1.02-3.82.96-4.29Z"/>
  </g>
</svg>